<svg xmlns="http://www.w3.org/2000/svg" viewBox="0 0 338.66 190.6"><defs><style>.cls-1{fill:#fe3501}</style></defs><g id="レイヤー_2" data-name="レイヤー 2"><g id="レイヤー_1-2" data-name="レイヤー 1"><path d="M0 140.06a12.27 12.27 0 01.87-4.71 10.21 10.21 0 012.44-3.6A10.67 10.67 0 017 129.47a13.37 13.37 0 014.68-.79 13.33 13.33 0 014.68.79 10.71 10.71 0 013.71 2.28 10.32 10.32 0 012.43 3.6 13.18 13.18 0 010 9.42 10.32 10.32 0 01-2.43 3.6 10.71 10.71 0 01-3.71 2.28 13.33 13.33 0 01-4.68.8 13.37 13.37 0 01-4.68-.8 10.67 10.67 0 01-3.7-2.28 10.21 10.21 0 01-2.44-3.6 12.2 12.2 0 01-.86-4.71zm5 0a8.1 8.1 0 00.47 2.8 6.42 6.42 0 001.36 2.2 6.32 6.32 0 002.13 1.46 7 7 0 002.77.52 7 7 0 002.77-.52 6.13 6.13 0 002.13-1.46 6.42 6.42 0 001.36-2.2 8.52 8.52 0 000-5.58 6.42 6.42 0 00-1.36-2.22 6.13 6.13 0 00-2.13-1.46 7.2 7.2 0 00-2.77-.52 7.23 7.23 0 00-2.77.52 6.32 6.32 0 00-2.13 1.46 6.42 6.42 0 00-1.36 2.22 8.07 8.07 0 00-.47 2.78zM29.12 129h8.6a15.08 15.08 0 013.22.33 7.45 7.45 0 012.67 1.1 5.47 5.47 0 011.82 2.07 7 7 0 01.68 3.25 6.5 6.5 0 01-1.23 4 5.52 5.52 0 01-3.58 2.09l5.7 9.33h-5.92l-4.64-8.88H34v8.88h-4.9zm4.9 9.2h2.89c.44 0 .9 0 1.4-.05a4.55 4.55 0 001.33-.28 2.36 2.36 0 001-.74 2.27 2.27 0 00.39-1.41 2.33 2.33 0 00-.34-1.35 2.24 2.24 0 00-.88-.77 3.84 3.84 0 00-1.23-.36 9 9 0 00-1.35-.1H34zm17.53 1.86a12.27 12.27 0 01.87-4.71 10.21 10.21 0 012.44-3.6 10.67 10.67 0 013.7-2.28 14.26 14.26 0 019.36 0 10.71 10.71 0 013.71 2.28 10.32 10.32 0 012.43 3.6 13.18 13.18 0 010 9.42 10.32 10.32 0 01-2.43 3.6 10.71 10.71 0 01-3.71 2.28 14.09 14.09 0 01-9.36 0 10.67 10.67 0 01-3.7-2.28 10.21 10.21 0 01-2.44-3.6 12.2 12.2 0 01-.87-4.71zm5 0a8.1 8.1 0 00.47 2.8 6.42 6.42 0 001.36 2.2 6.22 6.22 0 002.13 1.46 7.64 7.64 0 005.54 0 6.13 6.13 0 002.13-1.46 6.42 6.42 0 001.36-2.2 8.35 8.35 0 000-5.58 6.42 6.42 0 00-1.36-2.22A6.13 6.13 0 0066 133.6a7.64 7.64 0 00-5.54 0 6.22 6.22 0 00-2.13 1.46 6.42 6.42 0 00-1.33 2.22 8.07 8.07 0 00-.49 2.78zM96.15 129h7.34a21.34 21.34 0 015.07.59 11.63 11.63 0 014.19 1.94 9.39 9.39 0 012.84 3.46 11.67 11.67 0 011 5.18 10.59 10.59 0 01-1 4.76 10.2 10.2 0 01-2.74 3.45 12.12 12.12 0 01-4 2.12 15.55 15.55 0 01-4.74.72h-8zm4.89 17.7h2.54a13.67 13.67 0 003.16-.34 6.67 6.67 0 002.53-1.15 5.48 5.48 0 001.68-2.1 7.44 7.44 0 00.61-3.19A6.19 6.19 0 00111 137a5.72 5.72 0 00-1.65-2 7.06 7.06 0 00-2.43-1.18 10.92 10.92 0 00-2.94-.39H101zm21.77-17.7h4.9v22.22h-4.9zm32.75 20.53a17.79 17.79 0 01-4.48 1.61 22.33 22.33 0 01-4.77.5 13.55 13.55 0 01-4.76-.81 10.91 10.91 0 01-3.77-2.32 10.39 10.39 0 01-2.47-3.65 13.36 13.36 0 010-9.59 10.34 10.34 0 012.47-3.66 10.91 10.91 0 013.77-2.32 13.55 13.55 0 014.76-.81 17.52 17.52 0 014.88.64 9.44 9.44 0 013.9 2.19l-3.42 3.74a6.77 6.77 0 00-2.24-1.56 8.06 8.06 0 00-3.12-.53 7.25 7.25 0 00-2.81.53 6.25 6.25 0 00-2.17 1.48 6.49 6.49 0 00-1.38 2.26 8.48 8.48 0 000 5.68 6.49 6.49 0 001.38 2.24 6.25 6.25 0 002.17 1.48 7.25 7.25 0 002.81.53 9.19 9.19 0 002.74-.36 10.47 10.47 0 001.84-.73v-3.58h-3.95V138h8.62zm7.33-20.53h4.9v22.22h-4.9zm17.53 4.28h-6.34V129h17.58v4.33h-6.34v17.89h-4.9zm22.31-4.28h4.05l9.67 22.22h-5.52l-1.93-4.76h-8.63l-1.85 4.71h-5.4zm1.89 6.46l-2.7 6.91h5.43zm17.15-6.46h4.9v17.7h9.07v4.52h-14zM6.34 172.23H0v-4.33h17.58v4.33h-6.34v17.9h-4.9zm17.05-4.33H32a15.22 15.22 0 013.22.33 7.66 7.66 0 012.66 1.1 5.41 5.41 0 011.83 2.07 7 7 0 01.67 3.25 6.53 6.53 0 01-1.22 4 5.51 5.51 0 01-3.58 2.09l5.65 9.39h-5.88l-4.65-8.89h-2.42v8.89h-4.89zm4.89 9.2h4.29a4.19 4.19 0 001.33-.28 2.28 2.28 0 001-.74 2.23 2.23 0 00.39-1.41 2.37 2.37 0 00-.34-1.35 2.33 2.33 0 00-.88-.77 3.78 3.78 0 00-1.22-.36 10.43 10.43 0 00-1.35-.09h-3.22zm26.56-9.2h4l9.67 22.23H63l-1.92-4.71h-8.6l-1.85 4.71h-5.4zm1.88 6.47L54 181.28h5.43zM74 167.9h6.65l9.45 15.45h.06V167.9h4.9v22.23h-6.4L79 174.31h-.07v15.82H74zm40.41 5.48a3.45 3.45 0 00-1.6-1.11 6 6 0 00-1.92-.35 5.27 5.27 0 00-1.09.12 4.1 4.1 0 00-1.06.39 2.27 2.27 0 00-.8.7 1.92 1.92 0 00.43 2.58 6.93 6.93 0 001.89.91c.75.25 1.57.5 2.44.75a9.83 9.83 0 012.44 1 5.82 5.82 0 011.89 1.84 5.68 5.68 0 01.74 3.08 7 7 0 01-.68 3.21 6.63 6.63 0 01-1.85 2.27 7.91 7.91 0 01-2.71 1.34 11.94 11.94 0 01-3.26.44 11.66 11.66 0 01-4-.66 9.94 9.94 0 01-3.43-2.11l3.46-3.8a5.11 5.11 0 001.88 1.54 5.42 5.42 0 002.35.54 4.92 4.92 0 001.2-.14 3.64 3.64 0 001.09-.42 2.32 2.32 0 00.78-.71 1.78 1.78 0 00.3-1 1.86 1.86 0 00-.77-1.57 6.69 6.69 0 00-1.91-1q-1.15-.4-2.49-.81a11.6 11.6 0 01-2.49-1.09 6 6 0 01-1.92-1.81 5.16 5.16 0 01-.76-3 6.57 6.57 0 01.7-3.11 6.78 6.78 0 011.87-2.24 8.32 8.32 0 012.69-1.36 11.11 11.11 0 013.15-.45 12.47 12.47 0 013.61.53 8.41 8.41 0 013.14 1.78zm11.14-5.48h14.91v4.52h-10v4.52h9.26v4.52h-9.26v8.67h-4.89zm19.84 11.1a12.29 12.29 0 01.88-4.72 10.28 10.28 0 012.43-3.59 10.76 10.76 0 013.7-2.28 14.12 14.12 0 019.37 0 10.67 10.67 0 013.7 2.28 10.44 10.44 0 012.44 3.59 13.21 13.21 0 010 9.43 10.34 10.34 0 01-2.44 3.59 10.84 10.84 0 01-3.7 2.29 14.29 14.29 0 01-9.37 0 10.94 10.94 0 01-3.7-2.29 10.19 10.19 0 01-2.43-3.59 12.27 12.27 0 01-.88-4.71zm5 0a7.87 7.87 0 00.48 2.8 6.37 6.37 0 001.36 2.2 6.11 6.11 0 002.13 1.45 7.64 7.64 0 005.54 0A6.16 6.16 0 00162 184a6.54 6.54 0 001.37-2.2 8.55 8.55 0 000-5.59A6.44 6.44 0 00162 174a6.16 6.16 0 00-2.12-1.45 7.64 7.64 0 00-5.54 0 6.11 6.11 0 00-2.13 1.45 6.27 6.27 0 00-1.36 2.22 7.94 7.94 0 00-.5 2.78zM175 167.9h8.61a15.05 15.05 0 013.21.33 7.63 7.63 0 012.67 1.1 5.47 5.47 0 011.82 2.07 7 7 0 01.68 3.25 6.48 6.48 0 01-1.23 4 5.48 5.48 0 01-3.58 2.09l5.65 9.39H187l-4.64-8.89h-2.46v8.89H175zm4.9 9.2h4.29a4.25 4.25 0 001.33-.28 2.28 2.28 0 001-.74 2.23 2.23 0 00.39-1.41 2.37 2.37 0 00-.34-1.35 2.41 2.41 0 00-.88-.77 3.84 3.84 0 00-1.23-.36 10.43 10.43 0 00-1.35-.09h-3.2zm19.5-9.2h7.4l5.12 14.51h.08l5.15-14.51h7.38v22.23h-4.9v-17h-.06l-5.84 17H210l-5.62-17h-.07v17h-4.91zm39.48 0h4.05l9.67 22.23h-5.53l-1.91-4.71h-8.64l-1.85 4.71h-5.4zm1.88 6.47l-2.7 6.91h5.43zm19.05-2.14h-6.34v-4.33h17.58v4.33h-6.34v17.9h-4.9zm17.68-4.33h4.9v22.23h-4.9zm11.04 11.1a12.29 12.29 0 01.87-4.72 10.3 10.3 0 012.44-3.59 10.67 10.67 0 013.7-2.28 14.12 14.12 0 019.37 0 10.76 10.76 0 013.7 2.28 10.28 10.28 0 012.39 3.61 13.21 13.21 0 010 9.43 10.19 10.19 0 01-2.43 3.59 10.94 10.94 0 01-3.7 2.29 14.29 14.29 0 01-9.37 0 10.84 10.84 0 01-3.7-2.29 10.21 10.21 0 01-2.44-3.59 12.27 12.27 0 01-.83-4.73zm5 0a8.1 8.1 0 00.47 2.8 6.39 6.39 0 001.37 2.2 6.16 6.16 0 002.12 1.45 7.64 7.64 0 005.54 0 6.11 6.11 0 002.13-1.45 6.52 6.52 0 001.36-2.2 8.38 8.38 0 000-5.59 6.42 6.42 0 00-1.36-2.22 6.11 6.11 0 00-2.13-1.45 7.64 7.64 0 00-5.54 0 6.16 6.16 0 00-2.12 1.45 6.29 6.29 0 00-1.37 2.22 8.17 8.17 0 00-.51 2.79zm24.06-11.1h6.66l9.45 15.45h.06V167.9h4.9v22.23h-6.41l-9.7-15.82h-.06v15.82h-4.9z"/><path id="パス_59" data-name="パス 59" class="cls-1" d="M72.29 55.72L28 100h32l50-50L60 0H28l44.29 44.28a8.09 8.09 0 010 11.44z"/><path id="パス_60" data-name="パス 60" class="cls-1" d="M147.71 44.28L192 0h-32l-50 50 50 50h32l-44.29-44.28a8.09 8.09 0 010-11.44z"/><path class="cls-1" d="M0 0h28v100H0z"/></g></g></svg>